<svg xmlns="http://www.w3.org/2000/svg" width="32" height="32" viewBox="0 0 32 32">
    <g fill="none" fill-rule="evenodd">
        <g>
            <g>
                <g transform="translate(-1171 -7146) translate(-1 7126) translate(1172 20)">
                    <circle cx="16" cy="16" r="16" fill="#D0D0D0"/>
                    <path fill="#D0D0D0" d="M32 16c0-8.837-7.163-16-16-16S0 7.163 0 16c0 7.986 5.851 14.605 13.5 15.806V20.625H9.437V16H13.5v-3.525c0-4.01 2.389-6.225 6.043-6.225 1.751 0 3.582.313 3.582.313V10.5h-2.018c-1.987 0-2.607 1.233-2.607 2.499V16h4.438l-.71 4.625H18.5v11.18C26.149 30.606 32 23.987 32 16"/>
                    <g>
                        <g>
                            <g>
                                <path fill="#D0D0D0" d="M18.333 9.167C18.333 4.104 14.23 0 9.167 0 4.104 0 0 4.104 0 9.167c0 4.575 3.352 8.367 7.734 9.055v-6.406H5.407v-2.65h2.327V7.148c0-2.297 1.369-3.566 3.463-3.566 1.003 0 2.052.179 2.052.179v2.256h-1.156c-1.139 0-1.494.706-1.494 1.431v1.72h2.542l-.406 2.65h-2.136v6.405c4.382-.688 7.734-4.48 7.734-9.055" transform="translate(5 5) translate(1) translate(.333 .5)"/>
                                <path fill="#FFF" d="M12.735 11.816l.406-2.65H10.6V7.448c0-.725.355-1.431 1.494-1.431h1.156V3.76s-1.05-.18-2.052-.18c-2.094 0-3.463 1.27-3.463 3.567v2.02H5.407v2.65h2.327v6.405c.467.073.945.111 1.433.111.487 0 .965-.038 1.432-.111v-6.406h2.136z" transform="translate(5 5) translate(1) translate(.333 .5)"/>
                            </g>
                        </g>
                    </g>
                </g>
            </g>
        </g>
    </g>
</svg>
