<svg xmlns="http://www.w3.org/2000/svg" xmlns:xlink="http://www.w3.org/1999/xlink" width="32" height="32" viewBox="0 0 32 32">
    <defs>
        <path id="3atvlcdvoa" d="M0 0.074L16.426 0.074 16.426 16.421 0 16.421z"/>
    </defs>
    <g fill="none" fill-rule="evenodd">
        <g>
            <g>
                <g transform="translate(-1041 -7146) translate(-1 7126) translate(1042 20)">
                    <circle cx="16" cy="16" r="16" fill="#D0D0D0"/>
                    <g>
                        <g transform="translate(8 7.5) translate(0 .005)">
                            <mask id="at1b7bsrjb" fill="#fff">
                                <use xlink:href="#3atvlcdvoa"/>
                            </mask>
                            <path fill="#FEFEFE" d="M14.85 10.782c0 2.249-1.832 4.07-4.09 4.07H5.667c-2.259 0-4.09-1.821-4.09-4.07v-5.07c0-2.247 1.831-4.07 4.09-4.07h5.095c2.257 0 4.089 1.823 4.089 4.07v5.07zM11.366.074H5.06C2.266.074 0 2.329 0 5.11v6.274c0 2.781 2.266 5.036 5.061 5.036h6.305c2.795 0 5.06-2.255 5.06-5.036V5.11c0-2.782-2.265-5.037-5.06-5.037z" mask="url(#at1b7bsrjb)"/>
                        </g>
                        <path fill="#FEFEFE" d="M8.246 10.872c-1.439 0-2.604-1.16-2.604-2.59 0-1.432 1.165-2.592 2.604-2.592 1.437 0 2.603 1.16 2.603 2.591 0 1.43-1.166 2.591-2.603 2.591m0-6.896c-2.39 0-4.327 1.927-4.327 4.305 0 2.378 1.937 4.306 4.327 4.306 2.39 0 4.327-1.928 4.327-4.306s-1.938-4.305-4.327-4.305M13.561 3.908c0 .605-.494 1.095-1.1 1.095-.608 0-1.1-.49-1.1-1.095 0-.604.492-1.095 1.1-1.095.606 0 1.1.49 1.1 1.095" transform="translate(8 7.5)"/>
                    </g>
                </g>
            </g>
        </g>
    </g>
</svg>
