<svg xmlns="http://www.w3.org/2000/svg" width="32" height="32" viewBox="0 0 32 32">
    <g fill="none" fill-rule="evenodd">
        <g>
            <g>
                <g transform="translate(-1288 -7146) translate(-1 7126) translate(1289 20)">
                    <circle cx="16" cy="16" r="16" fill="#D0D0D0"/>
                    <path fill="#FFF" d="M19.904 16.12c-.517.631-1.279.95-2.264.95h-1.16v-1.698h.637c.476 0 .833-.126 1.09-.383.239-.24.36-.57.36-.982-.021-.377-.157-.681-.403-.904-.247-.221-.562-.334-.936-.334h-1.241v6.34c0 .31-.088.576-.262.788-.172.21-.406.311-.714.311-.306 0-.542-.103-.723-.313-.182-.216-.27-.473-.27-.787v-6.837c0-.382.104-.674.318-.89.21-.212.51-.32.892-.32h2.137c1.008 0 1.776.252 2.284.748.186.179.354.39.497.63.144.24.255.495.33.76.075.266.113.534.113.798 0 .869-.23 1.583-.685 2.124m-8.045-.759h1.714v1.698h-1.714c-.275 0-.507-.077-.689-.23-.18-.15-.268-.355-.268-.626 0-.26.089-.46.273-.612.187-.155.41-.23.684-.23M16.136 7.5h-.14C11.582 7.5 8 11.08 8 15.496v.203c0 3.038 1.695 5.68 4.19 7.034-.058.29-.249.744-.542 1.14-.339.454-.765.984-.962 1.193-.195.21-.018.305.57.154.587-.154 1.82-.627 2.741-1.158.413-.239.655-.376.826-.463.384.057.773.096 1.174.096h.139c4.415 0 7.996-3.58 7.996-7.996v-.203c0-4.416-3.58-7.996-7.996-7.996"/>
                </g>
            </g>
        </g>
    </g>
</svg>
