<svg xmlns="http://www.w3.org/2000/svg" width="32" height="32" viewBox="0 0 32 32">
    <g fill="none" fill-rule="evenodd">
        <g>
            <g>
                <g transform="translate(-1416 -7146) translate(-1 7126) translate(1417 20)">
                    <circle cx="16" cy="16" r="16" fill="#D0D0D0"/>
                    <path fill="#FFF" d="M13.645 16.007l-.004 6.265c0 .314-.001.315-.318.315H9.541c-.284 0-.284-.002-.284-.273l-.003-10.178c0-.798.006-1.595-.004-2.392-.002-.183.059-.244.242-.243 1.246.004 2.493.005 3.74-.001.172 0 .25.093.334.211 1.532 2.147 3.065 4.292 4.599 6.438.04.056.08.112.17.166v-.227l-.005-6.244c0-.336.005-.341.341-.341h3.761c.303 0 .318.014.318.301l-.01 12.509c0 .266-.009.273-.294.274-1.211 0-2.422-.004-3.633.004-.188.001-.297-.067-.4-.212-1.548-2.17-3.1-4.335-4.651-6.502l-.072-.1-.045.007v.223z"/>
                </g>
            </g>
        </g>
    </g>
</svg>
